<?xml version="1.0" encoding="UTF-8" standalone="no"?>
<!-- Created with Inkscape (http://www.inkscape.org/) -->

<svg
   width="297mm"
   height="210mm"
   viewBox="0 0 297 210"
   version="1.1"
   id="svg5"
   inkscape:version="1.1 (c68e22c387, 2021-05-23)"
   sodipodi:docname="GIFT_no_overlap.svg"
   inkscape:export-filename="C:\Users\Pierre\ownCloud\GIFT\figures\GIFT_no_overlap_principle.png"
   inkscape:export-xdpi="250"
   inkscape:export-ydpi="250"
   xmlns:inkscape="http://www.inkscape.org/namespaces/inkscape"
   xmlns:sodipodi="http://sodipodi.sourceforge.net/DTD/sodipodi-0.dtd"
   xmlns="http://www.w3.org/2000/svg"
   xmlns:svg="http://www.w3.org/2000/svg">
  <sodipodi:namedview
     id="namedview7"
     pagecolor="#ffffff"
     bordercolor="#666666"
     borderopacity="1.0"
     inkscape:pageshadow="2"
     inkscape:pageopacity="1"
     inkscape:pagecheckerboard="false"
     inkscape:document-units="mm"
     showgrid="false"
     inkscape:zoom="1"
     inkscape:cx="573"
     inkscape:cy="469"
     inkscape:window-width="2560"
     inkscape:window-height="1346"
     inkscape:window-x="1909"
     inkscape:window-y="-11"
     inkscape:window-maximized="1"
     inkscape:current-layer="layer1" />
  <defs
     id="defs2">
    <marker
       style="overflow:visible;"
       id="Arrow2Lend"
       refX="0.0"
       refY="0.0"
       orient="auto"
       inkscape:stockid="Arrow2Lend"
       inkscape:isstock="true">
      <path
         transform="scale(1.1) rotate(180) translate(1,0)"
         d="M 8.7185878,4.0337352 L -2.2072895,0.016013256 L 8.7185884,-4.0017078 C 6.9730900,-1.6296469 6.9831476,1.6157441 8.7185878,4.0337352 z "
         style="fill-rule:evenodd;fill:context-stroke;stroke-width:0.62500000;stroke-linejoin:round;"
         id="path17951" />
    </marker>
    <rect
       x="-70.336914"
       y="4.3063417"
       width="295.70213"
       height="84.691386"
       id="rect8159" />
    <rect
       x="477.05679"
       y="78.156113"
       width="266.94879"
       height="101.50144"
       id="rect17452" />
    <rect
       x="41.627968"
       y="90.433174"
       width="251.20325"
       height="51.676098"
       id="rect3624" />
    <rect
       x="41.627968"
       y="90.433174"
       width="251.20325"
       height="51.676098"
       id="rect3624-7" />
    <rect
       x="41.627968"
       y="90.433174"
       width="274.17041"
       height="51.676098"
       id="rect3624-5" />
    <rect
       x="41.627968"
       y="90.433174"
       width="320.10471"
       height="51.676098"
       id="rect3624-7-5" />
    <rect
       x="41.627968"
       y="90.433174"
       width="829.64197"
       height="104.45685"
       id="rect3624-7-5-7" />
    <rect
       x="477.05679"
       y="78.156113"
       width="266.94879"
       height="101.50144"
       id="rect17452-7" />
    <rect
       x="41.627968"
       y="90.433174"
       width="765.69604"
       height="70.961372"
       id="rect3624-7-5-7-6" />
    <rect
       x="477.05679"
       y="78.156113"
       width="266.94879"
       height="101.50144"
       id="rect17452-7-8" />
    <rect
       x="41.627968"
       y="90.433174"
       width="251.20325"
       height="51.676098"
       id="rect3624-71" />
    <rect
       x="41.627968"
       y="90.433174"
       width="251.20325"
       height="51.676098"
       id="rect3624-7-4" />
    <rect
       x="41.627968"
       y="90.433174"
       width="296.87891"
       height="51.676098"
       id="rect3624-7-2" />
    <rect
       x="41.627968"
       y="90.433174"
       width="251.20325"
       height="51.676098"
       id="rect3624-7-4-9" />
    <rect
       x="41.627968"
       y="90.433174"
       width="251.20325"
       height="51.676098"
       id="rect3624-7-6" />
    <rect
       x="477.05679"
       y="78.156113"
       width="266.94879"
       height="101.50144"
       id="rect17452-77" />
    <rect
       x="41.627968"
       y="90.433174"
       width="443.04099"
       height="145.05743"
       id="rect3624-7-4-4" />
    <rect
       x="477.05679"
       y="78.156113"
       width="266.94879"
       height="101.50144"
       id="rect17452-77-5" />
    <rect
       x="41.627968"
       y="90.433174"
       width="809.34167"
       height="98.36676"
       id="rect3624-7-5-7-5" />
    <rect
       x="-70.336914"
       y="4.3063416"
       width="295.70212"
       height="84.691383"
       id="rect8159-8" />
    <rect
       x="-70.336914"
       y="4.3063416"
       width="295.70212"
       height="84.691383"
       id="rect8159-5" />
    <rect
       x="-70.336914"
       y="4.3063416"
       width="295.70212"
       height="84.691383"
       id="rect8159-5-3" />
    <rect
       x="-70.336914"
       y="4.3063416"
       width="295.70212"
       height="84.691383"
       id="rect8159-5-8" />
    <rect
       x="-70.336914"
       y="4.3063416"
       width="295.70212"
       height="84.691383"
       id="rect8159-5-5" />
    <rect
       x="-70.336914"
       y="4.3063416"
       width="295.70212"
       height="84.691383"
       id="rect8159-5-8-5" />
    <rect
       x="-70.336914"
       y="4.3063416"
       width="295.70212"
       height="84.691383"
       id="rect8159-5-5-7" />
    <rect
       x="-70.336914"
       y="4.3063416"
       width="295.70212"
       height="84.691383"
       id="rect8159-5-3-6" />
    <rect
       x="-70.336914"
       y="4.3063416"
       width="295.70212"
       height="84.691383"
       id="rect8159-5-58" />
    <rect
       x="-70.336914"
       y="4.3063416"
       width="295.70212"
       height="84.691383"
       id="rect8159-5-3-6-4" />
    <rect
       x="-70.336914"
       y="4.3063416"
       width="295.70212"
       height="84.691383"
       id="rect8159-5-58-1" />
    <rect
       x="-70.336914"
       y="4.3063416"
       width="295.70212"
       height="84.691383"
       id="rect8159-5-5-7-1" />
    <rect
       x="-70.336914"
       y="4.3063416"
       width="295.70212"
       height="84.691383"
       id="rect8159-5-8-5-9" />
    <rect
       x="-70.336914"
       y="4.3063416"
       width="295.70212"
       height="84.691383"
       id="rect8159-5-3-6-0" />
    <rect
       x="-70.336914"
       y="4.3063416"
       width="295.70212"
       height="84.691383"
       id="rect8159-5-58-7" />
    <rect
       x="-70.336914"
       y="4.3063416"
       width="295.70212"
       height="84.691383"
       id="rect8159-5-5-7-9" />
    <rect
       x="-70.336914"
       y="4.3063416"
       width="295.70212"
       height="84.691383"
       id="rect8159-5-8-5-6" />
    <rect
       x="-70.336914"
       y="4.3063416"
       width="295.70212"
       height="84.691383"
       id="rect8159-5-3-6-6" />
    <rect
       x="-70.336914"
       y="4.3063416"
       width="295.70212"
       height="84.691383"
       id="rect8159-5-58-9" />
    <rect
       x="-70.336914"
       y="4.3063416"
       width="295.70212"
       height="84.691383"
       id="rect8159-5-5-7-5" />
    <rect
       x="-70.336914"
       y="4.3063416"
       width="711.98182"
       height="124.88391"
       id="rect8159-5-8-5-67" />
    <rect
       x="-70.336914"
       y="4.3063416"
       width="711.98181"
       height="124.88391"
       id="rect8159-5-8-5-67-8" />
    <rect
       x="-70.336914"
       y="4.3063416"
       width="711.98181"
       height="124.88391"
       id="rect8159-5-8-5-67-8-8" />
    <rect
       x="-70.336914"
       y="4.3063416"
       width="711.98181"
       height="124.88391"
       id="rect8159-5-8-5-67-8-5" />
    <marker
       style="overflow:visible"
       id="Arrow2Lend-2"
       refX="0"
       refY="0"
       orient="auto"
       inkscape:stockid="Arrow2Lend"
       inkscape:isstock="true">
      <path
         transform="matrix(-1.1,0,0,-1.1,-1.1,0)"
         d="M 8.7185878,4.0337352 -2.2072895,0.01601326 8.7185884,-4.0017078 c -1.7454984,2.3720609 -1.7354408,5.6174519 -6e-7,8.035443 z"
         style="fill:context-stroke;fill-rule:evenodd;stroke-width:0.625;stroke-linejoin:round"
         id="path17951-6" />
    </marker>
  </defs>
  <g
     inkscape:label="Layer 1"
     inkscape:groupmode="layer"
     id="layer1">
    <path
       style="fill:#d7d7d7;fill-opacity:0.370229;stroke:#000000;stroke-width:0.876955;stroke-linecap:butt;stroke-linejoin:miter;stroke-miterlimit:4;stroke-dasharray:none;stroke-opacity:1"
       d="M 18.776842,35.098337 C 18.791543,4.0460328 18.348875,4.3099609 57.082682,3.8102453 97.215237,3.720479 98.759546,3.5873578 98.341389,35.098337 99.133464,77.375833 98.894705,79.044358 57.082682,78.799171 19.594275,77.665343 19.720079,75.530287 18.776842,35.098337 Z"
       id="path1017-6"
       sodipodi:nodetypes="ccccc" />
    <path
       style="fill:#d7d7d7;fill-opacity:0.370229;stroke:#000000;stroke-width:0.876955;stroke-linecap:butt;stroke-linejoin:miter;stroke-miterlimit:4;stroke-dasharray:none;stroke-opacity:1"
       d="m 15.30225,159.05953 c 0.0147,-31.0523 -0.427968,-30.78838 38.30584,-31.28809 40.132554,-0.0898 41.676863,-0.22289 41.258706,31.28809 0.792075,42.2775 0.553316,43.94602 -41.258706,43.70084 -37.488407,-1.13383 -37.362603,-3.26889 -38.30584,-43.70084 z"
       id="path1017-6-25"
       sodipodi:nodetypes="ccccc" />
    <path
       style="fill:#aaaaaa;fill-opacity:1;stroke:#000000;stroke-width:0.829908;stroke-linecap:butt;stroke-linejoin:miter;stroke-miterlimit:4;stroke-dasharray:none;stroke-opacity:1"
       d="M 24.64567,31.743802 H 63.740231 L 71.185939,64.231631 45.48205,69.2309 Z"
       id="path1017-6-3"
       sodipodi:nodetypes="ccccc" />
    <text
       xml:space="preserve"
       transform="matrix(0.26458333,0,0,0.26458333,89.051942,106.75314)"
       id="text8157-2-77-1-3"
       style="font-style:normal;font-weight:normal;font-size:42.6667px;line-height:1.25;font-family:sans-serif;white-space:pre;shape-inside:url(#rect8159-5-8-5-67);fill:#000000;fill-opacity:1;stroke:none"><tspan
         x="-70.335938"
         y="43.232763"
         id="tspan21292">area_th_mainland = 100</tspan></text>
    <g
       id="g15956"
       transform="matrix(0.72527145,0,0,0.72527145,18.740004,-68.495687)">
      <path
         style="fill:#ffffff;fill-opacity:1;stroke:none;stroke-width:0.290731;stroke-linecap:butt;stroke-linejoin:miter;stroke-miterlimit:4;stroke-dasharray:none;stroke-opacity:1"
         d="m 18.786185,153.59544 c 0.01022,-4.90481 -0.29779,-4.86312 26.654116,-4.94205 27.925187,-0.014 28.714905,0.0599 28.70879,4.94205 0.0764,6.63038 0.385011,6.94139 -28.70879,6.90265 -26.085327,-0.17908 -26.662432,-0.27895 -26.654116,-6.90265 z"
         id="path1017-6-2"
         sodipodi:nodetypes="ccccc" />
      <text
         xml:space="preserve"
         transform="matrix(0.26458333,0,0,0.26458333,39.108416,149.34771)"
         id="text8157-2-77-1-3-0"
         style="font-style:normal;font-weight:normal;font-size:26.6667px;line-height:1.25;font-family:sans-serif;white-space:pre;shape-inside:url(#rect8159-5-8-5-67-8);fill:#000000;fill-opacity:1;stroke:none"><tspan
           x="-70.335938"
           y="28.63548"
           id="tspan21294">area = 99km²</tspan></text>
    </g>
    <path
       style="fill:#d7d7d7;fill-opacity:0.370229;stroke:#000000;stroke-width:0.876955;stroke-linecap:butt;stroke-linejoin:miter;stroke-miterlimit:4;stroke-dasharray:none;stroke-opacity:1"
       d="m 192.28136,38.399532 c 0.0147,-31.0523004 -0.42797,-30.7883723 38.30584,-31.288088 40.13255,-0.089766 41.67686,-0.2228875 41.2587,31.288088 0.79208,42.277501 0.55332,43.946026 -41.2587,43.700839 -37.48841,-1.133828 -37.3626,-3.268884 -38.30584,-43.700839 z"
       id="path1017-6-6"
       sodipodi:nodetypes="ccccc" />
    <path
       style="fill:#aaaaaa;fill-opacity:1;stroke:#000000;stroke-width:1.09908;stroke-linecap:butt;stroke-linejoin:miter;stroke-miterlimit:4;stroke-dasharray:none;stroke-opacity:1"
       d="m 198.37897,22.735665 h 51.77451 l 9.86064,43.024941 -34.04069,6.620732 z"
       id="path1017-6-3-3"
       sodipodi:nodetypes="ccccc" />
    <path
       style="fill:#aaaaaa;fill-opacity:1;stroke:#000000;stroke-width:1.09908;stroke-linecap:butt;stroke-linejoin:miter;stroke-miterlimit:4;stroke-dasharray:none;stroke-opacity:1"
       d="m 201.71283,140.40842 h 51.77451 l 9.86065,43.02495 -34.04069,6.62072 z"
       id="path1017-6-3-3-7"
       sodipodi:nodetypes="ccccc" />
    <g
       id="g21071"
       transform="translate(-27.252083,-3.96875)">
      <path
         style="fill:#ffffff;fill-opacity:1;stroke:none;stroke-width:0.210859;stroke-linecap:butt;stroke-linejoin:miter;stroke-miterlimit:4;stroke-dasharray:none;stroke-opacity:1"
         d="m 236.49728,37.030842 c 0.007,-3.557318 -0.21598,-3.527082 19.33147,-3.584327 20.25334,-0.01015 20.8261,0.04344 20.82166,3.584327 0.0554,4.808826 0.27924,5.034392 -20.82166,5.006295 -18.91894,-0.129881 -19.3375,-0.202314 -19.33147,-5.006295 z"
         id="path1017-6-2-53"
         sodipodi:nodetypes="ccccc" />
      <text
         xml:space="preserve"
         transform="matrix(0.19189474,0,0,0.19189474,251.23641,33.950085)"
         id="text8157-2-77-1-3-0-3"
         style="font-style:normal;font-weight:normal;font-size:26.6667px;line-height:1.25;font-family:sans-serif;white-space:pre;shape-inside:url(#rect8159-5-8-5-67-8-5);fill:#000000;fill-opacity:1;stroke:none"><tspan
           x="-70.335938"
           y="28.63548"
           id="tspan21296">area = 110km²</tspan></text>
    </g>
    <path
       style="fill:none;stroke:#000000;stroke-width:1.13921;stroke-linecap:butt;stroke-linejoin:miter;stroke-miterlimit:4;stroke-dasharray:none;stroke-opacity:1;marker-end:url(#Arrow2Lend)"
       d="M 56.550317,85.259198 V 122.65225"
       id="path17928" />
    <path
       style="fill:none;stroke:#000000;stroke-width:1.13921;stroke-linecap:butt;stroke-linejoin:miter;stroke-miterlimit:4;stroke-dasharray:none;stroke-opacity:1;marker-end:url(#Arrow2Lend-2)"
       d="M 236.51856,85.259193 V 122.65226"
       id="path17928-3" />
  </g>
</svg>
